<svg width="213" height="45" viewBox="0 0 213 45" fill="none" xmlns="http://www.w3.org/2000/svg">
<g clip-path="url(#clip0_5707_23539)">
<path d="M57.0574 29.5441C55.4174 31.054 53.3995 31.809 51.018 31.809C48.6364 31.809 46.6185 31.0612 44.9785 29.5654C43.3385 28.0697 42.5186 26.1181 42.5186 23.7107V11.6951H46.7397V23.5184C46.7397 24.8005 47.1533 25.8546 47.9804 26.6808C48.8075 27.507 49.82 27.9201 51.0251 27.9201C52.2301 27.9201 53.2355 27.507 54.0555 26.6808C54.8683 25.8546 55.2819 24.8005 55.2819 23.5184V11.6951H59.5316V23.7036C59.5316 26.0897 58.7116 28.0341 57.0716 29.5369L57.0574 29.5441Z" fill="black"/>
<path d="M63.4961 31.5028V11.6951H68.1736L73.3503 19.48C73.7709 20.1067 74.2558 20.8475 74.8191 21.6879C75.3824 22.5284 75.8387 23.2193 76.1881 23.7464L76.7514 24.5868V11.6951H81.0368V31.4956H76.509L71.5391 24.0882C71.0044 23.2905 70.4197 22.4216 69.7851 21.4743C69.1505 20.527 68.6442 19.772 68.2734 19.2164L67.7886 18.3902V31.5028H63.5032H63.4961Z" fill="black"/>
<path d="M85.3076 31.5028V11.6951H89.593V31.4956H85.3076V31.5028Z" fill="black"/>
<path d="M93.8789 31.5028V11.6951H98.5564L103.733 19.48C104.154 20.1067 104.639 20.8475 105.202 21.6879C105.765 22.5284 106.222 23.2193 106.571 23.7464L107.134 24.5868V11.6951H111.42V31.4956H106.892L101.922 24.0882C101.387 23.2905 100.802 22.4216 100.168 21.4743C99.5333 20.527 99.027 19.772 98.6562 19.2164L98.1714 18.3902V31.5028H93.886H93.8789Z" fill="black"/>
<path d="M113.701 31.5027L122.286 11.7021H126.586L134.943 31.5027H130.835L129.523 28.3546H119.47L118.115 31.5027H113.708H113.701ZM120.91 24.9927H128.112L126.564 21.2962L124.447 16.2178C123.748 18.2549 123.092 19.9714 122.479 21.3531L120.91 24.9927Z" fill="black"/>
<path d="M136.582 29.1168L138.115 25.819C140.154 27.2863 142.336 28.0199 144.661 28.0199C145.702 28.0199 146.6 27.792 147.356 27.329C148.112 26.8732 148.49 26.3034 148.49 25.6338C148.49 24.9643 148.169 24.48 147.527 24.1381C146.885 23.7891 145.98 23.4971 144.818 23.2549C143.962 23.0484 143.22 22.8632 142.6 22.6923C141.98 22.5213 141.309 22.2649 140.596 21.9301C139.883 21.5954 139.299 21.225 138.849 20.8119C138.4 20.4059 138.022 19.886 137.716 19.2521C137.409 18.6182 137.259 17.9059 137.259 17.1153C137.259 15.2991 137.987 13.896 139.434 12.8988C140.882 11.9017 142.629 11.4031 144.668 11.4031C147.377 11.4031 149.795 12.1082 151.919 13.5113L150.358 16.8091C148.604 15.7264 146.707 15.1922 144.668 15.1922C143.933 15.1922 143.235 15.3347 142.572 15.6196C141.908 15.9045 141.58 16.396 141.58 17.0868C141.58 17.678 141.873 18.1338 142.465 18.4472C143.056 18.7606 143.983 19.0526 145.245 19.3162C150.279 20.4344 152.804 22.5427 152.804 25.641C152.804 27.6353 151.991 29.1666 150.372 30.2279C148.754 31.2891 146.835 31.8162 144.639 31.8162C141.438 31.8162 138.757 30.9187 136.596 29.1239L136.582 29.1168Z" fill="black"/>
<path d="M155.242 29.1168L156.775 25.819C158.814 27.2863 160.996 28.0199 163.321 28.0199C164.362 28.0199 165.26 27.792 166.016 27.329C166.772 26.8732 167.15 26.3034 167.15 25.6338C167.15 24.9643 166.829 24.48 166.187 24.1381C165.546 23.7891 164.64 23.4971 163.478 23.2549C162.622 23.0484 161.881 22.8632 161.26 22.6923C160.64 22.5213 159.97 22.2649 159.257 21.9301C158.544 21.5954 157.959 21.225 157.51 20.8119C157.06 20.4059 156.683 19.886 156.376 19.2521C156.069 18.6182 155.92 17.9059 155.92 17.1153C155.92 15.2991 156.647 13.896 158.094 12.8988C159.542 11.9017 161.289 11.4031 163.328 11.4031C166.038 11.4031 168.455 12.1082 170.58 13.5113L169.018 16.8091C167.264 15.7264 165.367 15.1922 163.328 15.1922C162.594 15.1922 161.895 15.3347 161.232 15.6196C160.569 15.9045 160.241 16.396 160.241 17.0868C160.241 17.678 160.533 18.1338 161.125 18.4472C161.717 18.7606 162.644 19.0526 163.906 19.3162C168.94 20.4344 171.464 22.5427 171.464 25.641C171.464 27.6353 170.651 29.1666 169.032 30.2279C167.414 31.2891 165.496 31.8162 163.3 31.8162C160.098 31.8162 157.417 30.9187 155.256 29.1239L155.242 29.1168Z" fill="black"/>
<path d="M172.833 31.5027L181.418 11.7021H185.718L194.074 31.5027H189.967L188.655 28.3546H178.601L177.247 31.5027H172.84H172.833ZM180.042 24.9927H187.243L185.696 21.2962L183.578 16.2178C182.88 18.2549 182.224 19.9714 181.61 21.3531L180.042 24.9927Z" fill="black"/>
<path d="M210.267 29.5441C208.627 31.054 206.609 31.809 204.228 31.809C201.846 31.809 199.828 31.0612 198.188 29.5654C196.549 28.0697 195.729 26.1181 195.729 23.7107V11.6951H199.95V23.5184C199.95 24.8005 200.363 25.8546 201.19 26.6808C202.017 27.507 203.03 27.9201 204.235 27.9201C205.44 27.9201 206.445 27.507 207.265 26.6808C208.078 25.8546 208.492 24.8005 208.492 23.5184V11.6951H212.742V23.7036C212.742 26.0897 211.922 28.0341 210.282 29.5369L210.267 29.5441Z" fill="black"/>
<path d="M1.41895 8.78906V32.6922C1.41895 33.5754 1.60433 34.4515 1.96085 35.2563C2.9591 37.5141 6.15351 39.0027 8.57783 39.4657C13.4621 40.4059 15.7225 41.1324 16.6565 42.4928C17.5977 41.1252 19.8509 40.3988 24.7352 39.4657C27.1596 39.0027 30.354 37.5141 31.3522 35.2563C31.7087 34.4443 31.8941 33.5754 31.8941 32.6922V8.78906H1.41895Z" fill="#213366"/>
<path d="M32.3719 0.940171V32.6923C32.3719 33.6467 32.1793 34.5798 31.7872 35.4487C31.2952 36.567 30.2684 37.5997 28.8209 38.4402C27.6373 39.1239 26.1827 39.6652 24.8279 39.9288C19.8081 40.8903 17.8402 41.6097 17.0487 42.7635L16.6565 43.3333L16.2644 42.7635C15.4729 41.6097 13.5049 40.8974 8.48513 39.9288C7.13036 39.6652 5.67577 39.1239 4.49213 38.4402C3.04467 37.5997 2.01789 36.567 1.5259 35.4487C1.14086 34.5727 0.941208 33.6467 0.941208 32.6923V0.940171H9.43347V2.40741H12.414V0.940171H20.8991V2.40741H23.8796V0.940171H32.3647M33.3059 0H22.9312V1.46724H21.8403V0H11.4656V1.46724H10.3747V0H0V32.6923C0 33.7821 0.221041 34.8362 0.663124 35.8333C1.24068 37.1368 2.40293 38.3191 4.02152 39.2593C5.29073 39.9929 6.85228 40.5769 8.30687 40.8618C12.9273 41.7521 14.8739 42.4074 15.4871 43.3048L15.8793 43.8746L16.6565 45.0071L17.4337 43.8746L17.8259 43.3048C18.4391 42.4145 20.3857 41.7521 25.0062 40.8618C26.4608 40.584 28.0223 40 29.2915 39.2593C30.9101 38.3191 32.0724 37.1296 32.6499 35.8333C33.092 34.8362 33.3131 33.7821 33.3131 32.6923V0H33.3059Z" fill="#213366"/>
<path d="M24.3573 1.41748V2.88472H20.4285V1.41748H12.8917V2.88472H8.95574V1.41748H1.41895V2.88472V8.45452H31.8941V2.88472V1.41748H24.3573Z" fill="#C2012E"/>
<path d="M3.9433 7.12233L2.80957 4.37305H3.3087L3.96469 5.94L4.1786 6.55253C4.2713 6.27476 4.3426 6.07533 4.39251 5.94L5.0485 4.37305H5.55476L4.42103 7.12233H3.9433Z" fill="white"/>
<path d="M7.68652 7.11521V4.37305H9.8185V4.79327H8.17852V5.46279H9.72581V5.88302H8.17852V6.68786H9.87555V7.10809H7.68652V7.11521Z" fill="white"/>
<path d="M12.0938 7.11521V4.37305H13.2489C13.641 4.37305 13.9405 4.47276 14.1473 4.66507C14.3541 4.8645 14.461 5.11379 14.461 5.42006C14.461 5.60524 14.4111 5.7833 14.3113 5.94712C14.2115 6.11094 14.076 6.23202 13.8977 6.31749L14.4967 7.11521H13.8977L13.42 6.45282C13.3344 6.45282 13.1918 6.45994 12.985 6.45994H12.5857V7.11521H12.0938ZM12.5857 6.03971H13.2774C13.4842 6.03971 13.641 5.98273 13.7623 5.86165C13.8835 5.74057 13.9476 5.59812 13.9476 5.42006C13.9476 5.24199 13.8835 5.09242 13.7623 4.97846C13.641 4.85738 13.477 4.8004 13.2774 4.8004H12.5857V6.04684V6.03971Z" fill="white"/>
<path d="M16.7422 7.11521V4.37305H17.2342V7.11521H16.7422Z" fill="white"/>
<path d="M20.3718 7.11521V4.79327H19.4092V4.37305H21.8335V4.79327H20.8709V7.11521H20.3789H20.3718Z" fill="white"/>
<path d="M23.3733 7.11521L24.6069 4.37305H25.0704L26.3039 7.11521H25.8048L25.5909 6.638H24.0792L23.8653 7.11521H23.3662H23.3733ZM24.2646 6.25339H25.4269L25.1132 5.55538C25.0775 5.47704 25.0347 5.37732 24.9848 5.27048C24.9349 5.16365 24.8992 5.07105 24.8707 5.00695L24.8351 4.90011C24.7424 5.15652 24.6568 5.3702 24.5712 5.55538L24.2575 6.24627L24.2646 6.25339Z" fill="white"/>
<path d="M28.3008 6.76626L28.4933 6.39589C28.7571 6.60957 29.0637 6.7164 29.406 6.7164C29.5629 6.7164 29.7055 6.68079 29.8195 6.60957C29.9408 6.53834 29.9978 6.44575 29.9978 6.32467C29.9978 6.24632 29.9693 6.18222 29.9051 6.12524C29.8409 6.06826 29.7768 6.03264 29.7126 6.01128C29.6484 5.98991 29.5557 5.96854 29.4345 5.93293C29.3133 5.89732 29.2135 5.86883 29.135 5.84746C29.0566 5.82609 28.9639 5.79048 28.8641 5.74062C28.7643 5.69076 28.6858 5.64091 28.6288 5.59105C28.5717 5.54119 28.5218 5.46997 28.479 5.3845C28.4363 5.29903 28.4149 5.20643 28.4149 5.0996C28.4149 4.85743 28.5147 4.66512 28.7072 4.52979C28.8997 4.39447 29.135 4.32324 29.4131 4.32324C29.7696 4.32324 30.0976 4.42296 30.39 4.62239L30.1975 4.99988C29.955 4.85031 29.6983 4.77196 29.4131 4.77196C29.3418 4.77196 29.2705 4.77908 29.1992 4.80045C29.1279 4.82182 29.0637 4.85743 29.0067 4.90729C28.9496 4.95715 28.9211 5.02125 28.9211 5.0996C28.9211 5.19931 28.9639 5.27054 29.0566 5.32752C29.1493 5.37737 29.2919 5.42723 29.4916 5.47709C29.6342 5.52695 29.7625 5.56256 29.8695 5.59817C29.9764 5.63378 30.0834 5.68364 30.1903 5.74774C30.2973 5.81185 30.3757 5.89019 30.4328 5.98991C30.4898 6.08962 30.5183 6.20358 30.5183 6.32467C30.5183 6.59532 30.4114 6.80187 30.1903 6.94432C29.9693 7.08678 29.7126 7.158 29.4131 7.158C28.9639 7.158 28.6003 7.02979 28.315 6.76626H28.3008Z" fill="white"/>
<path d="M10.0462 36.2394C10.0034 36.503 9.96062 36.7238 10.1104 36.9446C10.2244 36.8448 10.3385 36.7451 10.4526 36.6454C10.7663 36.6454 10.8091 36.3391 10.9874 36.154C10.9018 36.4674 10.8448 36.6953 11.073 36.9517C11.2227 36.8306 11.3653 36.7095 11.515 36.5813C11.5721 36.5813 11.6505 36.5813 11.7004 36.5599C11.8502 36.4958 11.9357 36.389 11.9856 36.2323C12.3136 36.1255 12.606 36.1397 12.8983 36.3463C12.9982 36.4175 13.0409 36.5386 13.0766 36.6525C13.4331 36.1896 13.1907 35.6625 12.6702 35.5272C12.1425 34.9574 13.1978 33.6255 13.5686 33.1554C13.5686 33.5186 13.4545 33.7608 13.2762 34.0599C13.7468 33.8676 14.0606 33.5614 14.3672 33.1483C15.1729 33.9246 15.9573 34.6867 16.8842 35.2993C17.4903 35.2494 18.0037 35.3705 18.4458 35.6127C17.5972 35.5913 16.6489 35.4061 16.2852 36.3819C16.1712 35.9901 16.271 35.7052 16.4992 35.399C16.0713 35.107 15.2442 35.0072 14.8806 35.2352C14.2388 35.6269 14.082 36.4032 14.4385 36.9232C14.5597 37.1013 14.6952 36.9446 14.8235 36.973C14.738 36.5528 14.795 36.154 15.1159 35.8976C15.2727 35.7765 15.5366 35.7765 15.5366 35.7765C15.4296 35.8619 15.3369 35.926 15.2727 36.0542C15.1301 36.3605 15.0945 36.7594 15.3868 36.9873C15.4367 37.03 15.5294 37.0229 15.5936 37.0229C17.7969 36.9873 19.993 37.0015 22.1963 36.9588C22.3033 36.9588 22.4673 36.9944 22.5029 36.852C22.56 36.6454 22.8523 36.3961 22.8523 36.389C23.5654 36.1468 24.1572 35.9474 24.5422 35.2209C25.3622 32.2793 21.5688 30.9901 24.0146 30.4844C23.9718 30.5842 23.872 30.6411 23.8434 30.7409C24.4353 30.7551 24.9059 30.399 24.7419 29.7437C24.6777 29.473 24.5066 29.2166 24.5137 28.9246C24.9843 27.8206 25.6973 28.2409 24.7989 26.795C24.6634 26.5457 24.3853 27.55 24.1001 27.728C24.1286 27.5429 24.2142 27.4075 24.3069 27.2508C23.8078 27.5144 23.273 27.6283 23.2587 28.426C23.2445 29.2594 24.314 29.9574 22.7881 29.9146C21.0198 31.6312 24.7133 32.2152 23.8434 34.8292C23.6794 35.0357 23.4513 35.0998 23.1946 35.0571C23.0092 34.879 23.1233 34.6084 23.0876 34.3733C22.781 32.5144 21.9753 31.0614 20.2996 30.2565C21.1981 29.9859 21.9111 29.5229 22.5101 28.7679C21.8113 28.8391 21.1339 28.832 20.4351 28.7038C21.8612 28.6255 23.1161 28.2765 23.8363 26.8876C22.9307 26.9588 22.1036 26.8235 21.2337 26.5742C23.9147 26.8377 27.3658 25.7551 28.193 23.7394C26.282 24.5656 24.0859 25.4844 21.9967 25.1853C24.364 24.8577 27.9719 23.8249 29.0557 21.0115C27.9434 21.9731 25.8827 23.1696 23.0306 23.3121C23.0234 23.3121 29.1199 21.9588 29.7402 18.4118C26.7312 21.0471 23.6866 21.9089 23.6866 21.9089C23.6866 21.9089 30.3107 18.7038 30.3107 15.1924C29.5549 16.1468 28.4496 17.3363 26.9024 18.4403C25.8613 19.181 24.8631 19.7152 24.0074 20.0927C24.6919 19.7651 25.9398 19.0528 26.9737 17.6639C28.471 15.6483 28.5423 13.5115 28.5352 12.7708C27.8436 14.3947 26.6599 16.389 24.585 17.9061C24.3354 18.0913 24.0859 18.2551 23.8363 18.4047C24.2855 18.0557 25.2695 17.1939 25.7829 15.7195C26.5601 13.4973 25.6759 11.5671 25.4763 11.1611C25.4905 11.9588 25.4121 13.3619 24.6777 14.8862C24.257 15.7622 23.7507 16.4104 23.3301 16.8662C23.5582 16.3605 23.822 15.577 23.8363 14.6013C23.872 12.5571 22.7739 11.1184 22.4031 10.6768C22.6099 11.681 22.7525 13.0557 22.5314 14.6369C22.4459 15.2637 22.3104 15.8335 22.1678 16.332C22.1678 15.805 22.0965 15.0713 21.7614 14.2736C20.9271 12.2793 19.116 11.446 18.624 11.2394C19.0875 12.0728 19.5581 13.077 19.936 14.2594C20.1 14.7722 20.2283 15.2708 20.3353 15.7337C20.0786 15.285 19.4797 14.409 18.3744 13.7537C16.9769 12.9275 15.6221 12.9631 15.1159 12.9987C17.1409 14.0172 18.2604 15.342 18.788 16.0756C20.2783 18.1411 21.5617 21.6668 20.1356 24.587C19.7577 25.3562 19.2871 25.8976 18.9734 26.2181C18.9164 26.1112 18.8593 26.0186 18.7951 25.9189C18.7381 25.8192 18.6882 25.7195 18.6311 25.6198C18.7238 25.691 18.8094 25.7622 18.9021 25.8335C19.0304 25.05 18.9164 24.4161 18.5242 23.7323C18.6953 23.8463 18.8593 23.9531 19.0304 24.0742C18.8664 23.134 18.3744 22.55 17.6899 21.9517C17.9894 21.9944 18.2746 22.0941 18.567 22.1582C17.9538 21.154 17.0054 20.9545 15.9287 20.8548C16.1712 20.7052 16.4136 20.5557 16.656 20.4061C15.1301 20.2779 12.5989 20.1283 12.9268 22.3862C11.8787 22.6924 11.2441 23.4688 12.114 24.4161C12.114 24.3733 12.0712 24.3306 12.1069 24.2879C12.4848 23.775 13.4474 23.8748 14.0107 23.8819C14.0107 23.8819 14.0107 23.8748 14.0107 23.8961C14.0107 23.946 13.8538 24.0671 13.9322 24.1383C13.9536 24.1597 14.0891 24.3235 14.1105 24.4303C14.1319 24.53 14.0178 24.758 13.9893 24.7936C12.4491 26.5956 11.351 29.4018 11.622 31.7879C11.8858 31.4033 12.0926 30.9973 12.2994 30.5842C12.1496 31.4317 12.0213 32.2651 11.7218 33.077C12.0498 32.9916 12.278 32.8278 12.4919 32.55C11.7218 34.7223 9.17628 35.8904 9.24045 36.6525C9.30462 36.5884 9.37593 36.5172 9.4401 36.4531C9.49001 36.4674 9.61836 36.4816 9.76097 36.4317C9.89644 36.3819 9.97488 36.3035 10.0105 36.2608L10.0462 36.2394ZM13.4188 22.5072C13.4188 22.5072 13.3975 22.4859 13.3832 22.4788C13.5686 21.9588 13.8538 21.9161 14.3458 21.9232C14.0321 22.1155 13.7254 22.3149 13.4117 22.5072H13.4188Z" fill="#F3D332"/>
<path d="M13.4263 22.5144C13.4263 22.5144 13.4049 22.493 13.3906 22.4859C13.576 21.966 13.8612 21.9232 14.3532 21.9303C14.0395 22.1226 13.7329 22.3221 13.4191 22.5144H13.4263Z" fill="#213366"/>
<path d="M16.464 17.1369L12.6849 17.607L14.2322 18.6041L12.3925 18.4973L13.5548 19.9218L11.8435 19.2523L12.5066 20.9688L11.0806 19.8078L11.1875 21.6383L10.1964 20.0927L9.72579 22.9845L9.25519 20.0927L8.25694 21.6383L8.36389 19.8078L6.93782 20.9688L7.60807 19.2523L5.88966 19.9218L7.05191 18.4973L5.2194 18.6041L6.76669 17.607L2.98047 17.1369L6.76669 16.6739L5.2194 15.6768L7.05191 15.7836L5.88966 14.3591L7.60807 15.0215L6.93782 13.3121L8.36389 14.4731L8.25694 12.6355L9.25519 14.181L9.72579 11.2893L10.1964 14.181L11.1875 12.6355L11.0806 14.4731L12.5066 13.3121L11.8435 15.0215L13.5548 14.3591L12.3925 15.7836L14.2322 15.6768L12.6849 16.6739L16.464 17.1369Z" fill="white"/>
<path d="M9.72569 18.6042C10.5369 18.6042 11.1945 17.9472 11.1945 17.1369C11.1945 16.3266 10.5369 15.6697 9.72569 15.6697C8.91446 15.6697 8.25684 16.3266 8.25684 17.1369C8.25684 17.9472 8.91446 18.6042 9.72569 18.6042Z" fill="#213366"/>
</g>
<defs>
<clipPath id="clip0_5707_23539">
<rect width="212.727" height="45" fill="white"/>
</clipPath>
</defs>
</svg>
